PathFileType	4	(X/Y/Z)	C:/Users/opensim2020/Desktop/walking_exp_matlab/subject03_walking11_straight_03.trc																																																																																																																																								
DataRate	CameraRate	NumFrames	NumMarkers	Units	OrigDataRate	OrigDataStartFrame	OrigNumFrames																																																																																																																																				
100	100	4	46	mm	100	2930	380																																																																																																																																				
Frame#	Time	LFHD			RFHD			LBHD			RBHD			C7			T10			CLAV			STRN			RBAK			LSHO			LUPA			LELB			LFRM			LWRA			LWRB			LFIN			RSHO			RUPA			RELB			RFRM			RWRA			RWRB			RFIN			LASI			RASI			LPSI			RPSI			LTHI			LKNE			LTIB			LANK			LHEE			LTOE			RTHI			RKNE			RTIB			RANK			RHEE			RTOE			*39			*40			*41			*42			*43			*44			*45		
		X1	Y1	Z1	X2	Y2	Z2	X3	Y3	Z3	X4	Y4	Z4	X5	Y5	Z5	X6	Y6	Z6	X7	Y7	Z7	X8	Y8	Z8	X9	Y9	Z9	X10	Y10	Z10	X11	Y11	Z11	X12	Y12	Z12	X13	Y13	Z13	X14	Y14	Z14	X15	Y15	Z15	X16	Y16	Z16	X17	Y17	Z17	X18	Y18	Z18	X19	Y19	Z19	X20	Y20	Z20	X21	Y21	Z21	X22	Y22	Z22	X23	Y23	Z23	X24	Y24	Z24	X25	Y25	Z25	X26	Y26	Z26	X27	Y27	Z27	X28	Y28	Z28	X29	Y29	Z29	X30	Y30	Z30	X31	Y31	Z31	X32	Y32	Z32	X33	Y33	Z33	X34	Y34	Z34	X35	Y35	Z35	X36	Y36	Z36	X37	Y37	Z37	X38	Y38	Z38	X39	Y39	Z39	X40	Y40	Z40	X41	Y41	Z41	X42	Y42	Z42	X43	Y43	Z43	X44	Y44	Z44	X45	Y45	Z45	X46	Y46	Z46
																																																																																																																																											
191	1.9	220.69705	1634.91492	1399.85779	214.2729	1634.06689	1532.77393	102.49825	1569.94238	1396.9519	100.40948	1569.40137	1528.16028	84.36382	1423.01001	1454.06799	46.14137	1110.68103	1455.88489	204.15056	1343.72534	1450.95825	244.01295	1178.09216	1441.69238	29.98869	1249.12939	1550.82996	157.13586	1381.87854	1296.44897	146.99309	1184.39478	1228.82495	157.1879	1060.98511	1218.32239	189.14687	934.34802	1218.93689	214.04939	817.68225	1249.88574	189.31383	821.45007	1199.67554	206.41138	738.18542	1211.23816	164.72531	1365.90247	1612.43494	164.40491	1143.64319	1685.98535	180.04019	1031.74768	1699.44507	196.88385	895.35638	1700.63647	224.15941	800.05554	1663.38733	195.8533	795.08398	1709.40186	217.86397	723.89148	1697.59729	205.33334	940.86072	1330.45923	219.78511	949.35016	1569.03162	46.23587	961.80493	1389.58459	56.28624	979.36926	1537.93591	176.93549	639.0882	1276.76318	207.70731	461.90387	1291.21643	56.43249	336.76151	1304.89746	-89.98957	194.67018	1354.88501	-136.73456	201.01888	1400.38757	-24.81956	59.38576	1361.20874	175.57283	656.05029	1610.51294	199.7809	476.63354	1573.40894	167.16492	289.11234	1577.5968	158.07579	73.07352	1526.87585	113.92771	40.18045	1477.03882	300.72098	37.27498	1503.65735	126.60544	1679.2677	1450.43225	NaN	NaN	NaN	NaN	NaN	NaN	NaN	NaN	NaN	NaN	NaN	NaN	NaN	NaN	NaN	NaN	NaN	NaN
192	1.91	228.21693	1635.05823	1400.38342	221.92233	1634.05286	1533.26135	110.01107	1570.00073	1397.58411	108.27679	1569.31067	1528.75354	91.80209	1423.26746	1454.94385	52.9696	1111.03931	1456.77954	211.35361	1343.8313	1451.27722	250.84415	1178.11633	1441.94812	37.22821	1249.58203	1551.60706	163.62126	1382.07056	1296.80847	151.51785	1184.41797	1229.34473	161.16995	1060.9823	1219.02466	192.17909	934.06226	1219.61035	216.08264	817.21112	1250.00171	191.02863	821.20526	1200.22693	207.58031	737.88586	1211.55774	172.61638	1366.14148	1612.82178	174.64812	1144.09412	1686.7793	191.46024	1032.3949	1700.33508	209.23154	896.18573	1702.16602	236.65157	800.88568	1665.10974	209.14175	795.99683	1711.57483	231.84505	725.16663	1700.16418	212.0808	941.64783	1331.13879	226.81648	949.58557	1569.6969	52.82547	962.14105	1390.57849	63.34594	979.2995	1538.73572	188.3403	640.1543	1277.73474	222.6387	463.72681	1291.604	72.78168	336.9292	1305.2771	-72.64955	193.76582	1354.92639	-119.79457	198.66634	1400.52002	-4.31352	60.0172	1361.07983	181.74074	655.95172	1610.48291	204.23662	476.36758	1573.34705	169.9422	289.14285	1577.53333	158.64027	73.21095	1527.05127	113.94905	40.37166	1477.00195	300.83536	37.18071	1503.50244	134.06015	1679.35352	1451.27454	NaN	NaN	NaN	NaN	NaN	NaN	NaN	NaN	NaN	NaN	NaN	NaN	NaN	NaN	NaN	NaN	NaN	NaN
193	1.92	235.72603	1635.47192	1400.47925	229.59952	1634.06067	1533.72144	117.49703	1570.17419	1398.15503	115.98592	1569.29944	1529.35645	99.02852	1423.56885	1455.56738	59.78615	1111.44861	1457.604	218.50119	1343.91284	1451.45361	257.60596	1178.19287	1442.20874	44.55764	1250.03711	1552.43066	170.05916	1382.43945	1297.19836	156.07951	1184.71826	1229.83179	164.88225	1061.15381	1219.62646	194.84947	934.073	1220.28516	218.87914	817.4469	1249.31763	192.80606	821.21997	1200.85791	209.00397	737.91266	1211.85071	180.41841	1366.46375	1613.16443	184.6729	1144.73535	1687.42603	203.03461	1033.35571	1701.06384	221.61797	897.31726	1703.65149	249.32059	801.99213	1666.86133	222.43625	797.19751	1713.69104	245.86311	726.57269	1702.70178	218.84065	942.56079	1331.86255	233.82115	949.71875	1570.29004	59.66392	962.51373	1391.4873	70.36328	979.23126	1539.66748	199.61351	641.35699	1278.79883	237.2276	465.45868	1292.21521	89.27401	336.67273	1305.74963	-54.64001	191.81908	1355.09607	-102.41564	195.11475	1400.42224	18.09138	60.70594	1361.37317	187.79124	655.83563	1610.62	208.7294	476.11154	1573.19995	172.74121	289.08521	1577.39734	158.71439	73.30112	1526.79346	114.01357	40.57049	1476.99622	300.96292	37.11781	1503.35559	141.29332	1679.8894	1452.05945	NaN	NaN	NaN	NaN	NaN	NaN	NaN	NaN	NaN	NaN	NaN	NaN	NaN	NaN	NaN	NaN	NaN	NaN
194	1.93	243.16164	1635.401	1401.25012	237.32599	1634.0481	1534.21545	124.91684	1570.43713	1398.74683	123.46466	1569.41345	1529.92578	106.05672	1423.83569	1456.27112	66.61599	1111.77722	1458.45972	225.55688	1344.0509	1451.58643	264.24011	1178.25696	1442.42456	51.9859	1250.48267	1553.23535	176.49875	1382.90063	1297.57947	160.49619	1185.10144	1230.27209	168.56056	1061.53198	1220.14661	197.59695	934.27606	1220.89343	218.28607	816.35376	1252.70032	194.72813	821.46893	1201.41211	210.52568	738.14514	1212.17212	188.19809	1366.99109	1613.47668	194.58681	1145.49878	1687.99585	214.38768	1034.46313	1701.74084	234.07765	898.67126	1705.01636	262.0556	803.28131	1668.58142	235.83862	798.67822	1715.75562	259.92468	728.27496	1705.19983	225.68637	943.62238	1332.77454	240.81065	949.84845	1570.90015	66.46276	963.06519	1392.37781	77.49361	979.14465	1540.4906	211.38011	642.51807	1279.40186	251.65015	467.32593	1293.01758	106.4674	335.91095	1306.54517	-35.82485	188.77225	1355.21826	-84.47687	190.27521	1400.07007	41.85715	60.78283	1362.26123	193.84013	655.68683	1610.68286	213.13066	475.86414	1573.07605	175.41612	289.08554	1577.32544	159.02489	73.45454	1526.59094	114.04609	40.77542	1476.95703	301.04971	37.05345	1503.22461	149.34181	1679.88696	1452.42676	NaN	NaN	NaN	NaN	NaN	NaN	NaN	NaN	NaN	NaN	NaN	NaN	NaN	NaN	NaN	NaN	NaN	NaN
